<svg width="507" height="451" viewBox="0 0 507 451" fill="none" xmlns="http://www.w3.org/2000/svg">
<path d="M255.164 124L274.639 270.855L255.164 290.33L235.689 270.855L255.164 124Z" fill="#004283"/>
<path d="M255.164 124L274.639 270.855L255.164 268.177L235.689 270.855L255.164 124Z" fill="#004283"/>
<path d="M269.102 270.856L255.165 290.331L252.305 270.856L255.165 251.381L269.102 270.856Z" fill="#004283"/>
<path fill-rule="evenodd" clip-rule="evenodd" d="M129.503 187.795C116.6 209.459 109.181 234.77 109.181 261.816C109.181 313.75 136.512 359.292 177.57 384.868L140.138 450.997C76.0857 412.343 33.252 342.083 33.252 261.816C33.252 213.74 48.6242 169.26 74.7121 133.004L129.503 187.795Z" fill="#1380BE" fill-opacity="0.33"/>
<path fill-rule="evenodd" clip-rule="evenodd" d="M433.405 133.004C459.491 169.261 474.865 213.74 474.865 261.816C474.865 342.081 432.035 412.337 367.987 450.992L330.564 384.857C371.613 359.28 398.936 313.743 398.936 261.816C398.936 234.77 391.516 209.459 378.614 187.795L433.405 133.004Z" fill="#1380BE"/>
<path fill-rule="evenodd" clip-rule="evenodd" d="M254.059 41.0095C325.614 41.0095 389.207 75.0552 429.556 127.822L375.136 182.243C349.232 142.906 304.681 116.938 254.059 116.938C203.437 116.938 158.887 142.907 132.983 182.243L78.5625 127.822C118.912 75.0552 182.505 41.0095 254.059 41.0095Z" fill="#1380BE" fill-opacity="0.67"/>
<path fill-rule="evenodd" clip-rule="evenodd" d="M255.048 229C273.826 229 289.049 244.222 289.049 263C289.049 281.778 273.826 297 255.048 297C236.271 297 221.049 281.778 221.049 263C221.049 244.222 236.271 229 255.048 229Z" fill="black"/>
<path fill-rule="evenodd" clip-rule="evenodd" d="M254.756 232.435C271.669 232.435 285.379 246.146 285.379 263.058C285.379 279.97 271.669 293.68 254.756 293.68C237.845 293.68 224.135 279.97 224.135 263.058C224.135 246.146 237.845 232.435 254.756 232.435Z" fill="white"/>
<path fill-rule="evenodd" clip-rule="evenodd" d="M254.756 236.273C269.549 236.273 281.541 248.266 281.541 263.058C281.541 277.85 269.549 289.841 254.756 289.841C239.964 289.841 227.973 277.85 227.973 263.058C227.973 248.266 239.964 236.273 254.756 236.273Z" fill="#808080"/>
<path fill-rule="evenodd" clip-rule="evenodd" d="M201.221 26.3501C172.271 32.8863 144.611 44.7016 119.682 61.3589C105.315 70.9586 92.0863 82.0116 80.1796 94.2951L77.2481 92.0103C89.4078 79.4251 102.931 68.1066 117.629 58.2862C143.17 41.2197 171.536 29.16 201.221 22.563V26.3501ZM39.1307 143.392L42.0808 145.692C37.6461 153.696 33.6521 161.971 30.1264 170.482C24.6482 183.708 20.374 197.328 17.3199 211.181H13.5371C16.6485 196.844 21.0459 182.748 26.7122 169.068C30.3662 160.247 34.5156 151.676 39.1307 143.392ZM13.6019 316.181C23.6745 362.322 46.7819 404.64 80.2221 438.08L82.8352 435.467C50.0861 402.718 27.3977 361.325 17.3858 316.181H13.6019ZM306.221 25.8861C335.932 32.3189 364.327 44.2996 389.858 61.3589C403.792 70.6696 416.656 81.3473 428.281 93.1889L431.214 90.9025C419.335 78.7602 406.176 67.8176 391.911 58.2862C365.768 40.8181 336.667 28.5951 306.221 22.1063V25.8861ZM469.649 142.038L466.701 144.335C471.44 152.759 475.688 161.489 479.413 170.482C484.81 183.512 489.039 196.925 492.083 210.565H495.868C492.765 196.44 488.413 182.552 482.827 169.068C478.974 159.765 474.569 150.74 469.649 142.038ZM426.704 435.467C459.602 402.569 482.348 360.948 492.29 315.565L496.071 315.565C486.071 361.945 462.907 404.491 429.318 438.08L426.704 435.467Z" fill="#004283"/>
<path d="M18.5907 297.468L18.5907 293.376L12.0324 293.376C12.1137 292.996 12.1408 292.509 12.1408 291.967C12.1408 289.528 11.5175 287.441 10.2167 286.032C9.21403 284.921 7.66932 284.351 5.88072 284.351C4.09211 284.351 2.57451 285.11 1.65311 286.303C0.677502 287.522 0.189701 289.338 0.189701 291.885C0.189701 294.406 0.352301 296.194 0.569102 297.468L18.5907 297.468ZM3.46881 293.376C3.38751 293.078 3.33331 292.509 3.33331 291.696C3.33331 289.609 4.33601 288.444 6.01622 288.444C7.85902 288.444 8.97013 289.799 8.97013 291.994C8.97013 292.617 8.94303 293.023 8.86173 293.376L3.46881 293.376Z" fill="black"/>
<path d="M-1.04013e-06 273.673C-8.05581e-07 279.038 4.09211 282.561 9.56633 282.561C14.7966 282.561 18.8888 279.364 18.8888 273.971C18.8888 268.605 15.2844 265.001 9.26823 265.001C4.20051 265.001 -1.28534e-06 268.063 -1.04013e-06 273.673ZM3.27911 273.754C3.27911 270.908 6.09752 269.364 9.40373 269.364C12.9538 269.364 15.6096 270.963 15.6096 273.754C15.6096 276.518 13.0893 278.198 9.48503 278.198C5.93492 278.198 3.27911 276.572 3.27911 273.754Z" fill="black"/>
<path d="M-1.88923e-06 254.247C-1.65469e-06 259.613 4.09211 263.136 9.56633 263.136C14.7966 263.136 18.8888 259.938 18.8888 254.545C18.8888 249.18 15.2844 245.575 9.26823 245.575C4.20051 245.575 -2.13444e-06 248.638 -1.88923e-06 254.247ZM3.27911 254.329C3.27911 251.483 6.09752 249.938 9.40373 249.938C12.9538 249.938 15.6096 251.537 15.6096 254.329C15.6096 257.093 13.0893 258.773 9.48503 258.773C5.93492 258.773 3.27911 257.147 3.27911 254.329Z" fill="black"/>
<path d="M18.5907 242.871L18.5907 238.779L11.4091 238.779L11.4091 237.559C11.4362 235.852 12.0324 235.066 14.3359 234.551C16.5852 234.036 18.0487 233.575 18.5907 233.304L18.5907 229.077C17.8861 229.429 15.5012 229.971 13.4145 230.54C11.7343 231.001 10.5419 231.706 10.027 232.979L9.94573 232.979C9.37663 231.407 7.77772 229.754 5.47421 229.754C3.79401 229.754 2.4932 230.351 1.626 231.462C0.596199 232.762 0.189698 234.659 0.189698 237.369C0.189698 239.592 0.352299 241.543 0.5691 242.871L18.5907 242.871ZM3.41461 238.779C3.33331 238.481 3.27911 237.911 3.27911 236.909C3.27911 235.012 4.14631 233.874 5.79942 233.874C7.39832 233.874 8.42812 235.093 8.42812 237.153L8.42812 238.779L3.41461 238.779Z" fill="black"/>
<path d="M498.376 242.393L498.376 235.591L495.151 235.591L495.151 238.409L491.303 238.409C491.167 238.084 491.059 237.325 491.059 236.404C491.059 233.016 493.254 230.632 497.048 230.632C501.032 230.632 502.956 233.26 502.956 236.702C502.956 238.707 502.631 239.927 502.17 240.93L505.503 241.797C505.91 240.903 506.37 239.087 506.37 236.729C506.37 230.74 502.902 226.323 496.831 226.296C494.148 226.296 491.763 227.217 490.165 228.87C488.566 230.55 487.726 232.962 487.726 236.296C487.726 238.707 488.322 241.119 488.755 242.393L498.376 242.393Z" fill="black"/>
<path d="M506.506 253.657C506.506 248.291 502.414 244.768 496.94 244.768C491.709 244.768 487.617 247.966 487.617 253.359C487.617 258.725 491.221 262.329 497.238 262.329C502.305 262.329 506.506 259.267 506.506 253.657ZM503.227 253.576C503.227 256.421 500.408 257.966 497.102 257.966C493.552 257.966 490.896 256.367 490.896 253.576C490.896 250.811 493.417 249.131 497.021 249.131C500.571 249.131 503.227 250.757 503.227 253.576Z" fill="black"/>
<path d="M506.506 273.082C506.506 267.716 502.414 264.193 496.94 264.193C491.709 264.193 487.617 267.391 487.617 272.784C487.617 278.15 491.221 281.754 497.238 281.754C502.305 281.754 506.506 278.692 506.506 273.082ZM503.227 273.001C503.227 275.846 500.408 277.391 497.102 277.391C493.552 277.391 490.896 275.792 490.896 273.001C490.896 270.237 493.417 268.557 497.021 268.557C500.571 268.557 503.227 270.183 503.227 273.001Z" fill="black"/>
<path d="M487.996 284.459C487.861 285.461 487.725 287.006 487.725 289.147C487.725 292.724 488.484 295.678 490.083 297.602C491.574 299.337 493.986 300.61 497.482 300.61C500.706 300.61 502.956 299.418 504.365 297.521C505.666 295.787 506.316 293.51 506.316 290.014C506.316 287.955 506.154 285.976 505.91 284.459L487.996 284.459ZM502.983 288.578C503.064 288.93 503.145 289.554 503.145 290.448C503.145 294.025 501.14 296.247 497.346 296.247C492.983 296.247 490.923 293.781 490.95 290.014C490.95 289.527 490.95 288.93 491.032 288.578L502.983 288.578Z" fill="black"/>
<path d="M229.199 18.401H233.318V11.0568H239.877V7.69642H233.318V3.52301H240.337V0.135501H229.199V18.401Z" fill="black"/>
<path d="M251.122 13.7126L252.531 18.401H257.003L251.312 0.135501H245.892L240.336 18.401H244.591L245.892 13.7126H251.122ZM246.488 10.6232L247.572 6.74792C247.87 5.69102 248.141 4.30891 248.412 3.22491H248.466C248.737 4.30891 249.063 5.66392 249.388 6.74792L250.526 10.6232H246.488Z" fill="black"/>
<path d="M259.449 0.135501V18.401H263.568V0.135501H259.449Z" fill="black"/>
<path d="M267.149 18.401H271.241V11.2194H272.461C274.168 11.2465 274.954 11.8427 275.469 14.1462C275.984 16.3956 276.445 17.859 276.716 18.401H280.943C280.591 17.6964 280.049 15.3115 279.48 13.2248C279.019 11.5446 278.315 10.3522 277.041 9.83733V9.75603C278.613 9.18693 280.266 7.58802 280.266 5.28452C280.266 3.60431 279.67 2.30351 278.558 1.4363C277.258 0.406501 275.361 0 272.651 0C270.428 0 268.477 0.1626 267.149 0.379401V18.401ZM271.241 3.22491C271.54 3.14361 272.109 3.08941 273.111 3.08941C275.008 3.08941 276.147 3.95661 276.147 5.60972C276.147 7.20862 274.927 8.23843 272.867 8.23843H271.241V3.22491Z" fill="black"/>
</svg>
